<?xml version="1.0" standalone="no"?>
<!DOCTYPE svg PUBLIC "-//W3C//DTD SVG 20010904//EN"
 "http://www.w3.org/TR/2001/REC-SVG-20010904/DTD/svg10.dtd">
<svg version="1.0" xmlns="http://www.w3.org/2000/svg"
 width="1890.000000pt" height="1417.000000pt" viewBox="0 0 1890.000000 1417.000000"
 preserveAspectRatio="xMidYMid meet">

<g transform="translate(0.000000,1417.000000) scale(0.100000,-0.100000)"
fill="#000000" stroke="none">
<path d="M9475 7299 c-12 -19 5 -58 51 -115 29 -35 42 -60 37 -65 -6 -6 -74
-10 -152 -10 -142 1 -181 -7 -181 -34 0 -22 27 -26 194 -27 86 -1 162 -6 169
-10 12 -9 -20 -42 -96 -101 -41 -31 -58 -74 -36 -88 9 -5 22 0 39 14 14 13 50
42 80 64 153 114 166 159 65 233 -30 22 -67 56 -82 76 -56 73 -74 86 -88 63z"/>
</g>
</svg>
